<svg width="95" height="96" viewBox="0 0 95 96" fill="none" xmlns="http://www.w3.org/2000/svg">
<g clip-path="url(#clip0_21_103)">
<path d="M89.4069 0.911133L81.7756 86.4012L47.4725 95.9111L13.2639 86.4146L5.64062 0.911133H89.4069Z" fill="#264DE4"/>
<path d="M47.5237 88.6422L75.2422 80.9575L81.7637 7.90234H47.5237V88.6422Z" fill="#2965F1"/>
<path d="M47.5237 39.6143H23.1167L24.0566 50.1008H47.5237V39.6143Z" fill="#EBEBEB"/>
<path d="M47.5238 18.3892H47.4876H21.2283L22.1815 28.8759H47.5238V18.3892Z" fill="#EBEBEB"/>
<path d="M24.5251 55.3445L25.9943 71.81L47.4755 77.7733L47.5237 77.7599V66.8494L47.4778 66.8617L35.7987 63.7081L35.0521 55.3445H29.377H24.5251Z" fill="#EBEBEB"/>
<path d="M60.4007 50.1009L59.1835 63.7013L47.4875 66.8581V77.7682L68.9858 71.81L69.1435 70.0383L71.6077 42.4304L71.8636 39.6144L73.7568 18.3892H47.4875V28.8759H62.2643L61.3101 39.6144H47.4875V50.1009H60.4007Z" fill="white"/>
</g>
<defs>
<clipPath id="clip0_21_103">
<rect width="95" height="95" fill="white" transform="translate(0 0.911133)"/>
</clipPath>
</defs>
</svg>
