<svg width="144" height="128" viewBox="0 0 144 128" fill="none" xmlns="http://www.w3.org/2000/svg">
<path d="M118.397 41.4872C116.903 40.9735 115.355 40.4875 113.761 40.0278C114.023 38.9597 114.264 37.9054 114.478 36.869C117.987 19.8518 115.692 6.14255 107.858 1.62889C100.346 -2.69912 88.0601 1.81352 75.6523 12.6016C74.4591 13.639 73.2626 14.7374 72.0666 15.8884C71.2698 15.1269 70.4741 14.3909 69.6806 13.6869C56.6768 2.15155 43.6425 -2.70962 35.8158 1.81711C28.3108 6.15766 26.0883 19.0456 29.2469 35.173C29.5519 36.7308 29.9085 38.3215 30.3117 39.9389C28.4669 40.4621 26.686 41.0198 24.982 41.6132C9.7365 46.9235 0 55.2461 0 63.8788C0 72.7947 10.4521 81.7376 26.3316 87.16C27.5847 87.588 28.885 87.9926 30.225 88.3767C29.7901 90.126 29.4117 91.8402 29.0942 93.5121C26.0824 109.36 28.4344 121.943 35.9194 126.256C43.6507 130.711 56.626 126.132 69.2607 115.098C70.2593 114.226 71.2615 113.301 72.2655 112.331C73.5669 113.583 74.8661 114.768 76.1585 115.88C88.3967 126.401 100.484 130.65 107.962 126.325C115.686 121.858 118.196 108.34 114.937 91.8934C114.688 90.6374 114.398 89.3541 114.073 88.0481C114.984 87.779 115.879 87.5011 116.751 87.2123C133.259 81.7478 144 72.9138 144 63.8788C144 55.2149 133.95 46.8362 118.397 41.4872ZM114.816 81.3785C114.029 81.639 113.221 81.8907 112.398 82.1347C110.575 76.3706 108.116 70.2414 105.106 63.9088C107.978 57.727 110.343 51.6761 112.114 45.9494C113.587 46.3752 115.017 46.8244 116.395 47.2984C129.72 51.8815 137.848 58.6576 137.848 63.8788C137.848 69.4403 129.07 76.66 114.816 81.3785ZM108.902 93.087C110.343 100.359 110.549 106.935 109.594 112.075C108.737 116.693 107.012 119.773 104.879 121.006C100.341 123.63 90.6366 120.219 80.1704 111.221C78.9706 110.189 77.762 109.088 76.5496 107.922C80.6072 103.489 84.6624 98.3346 88.6202 92.6104C95.5815 91.9933 102.158 90.9843 108.123 89.6069C108.416 90.7907 108.677 91.9518 108.902 93.087ZM49.0929 120.552C44.6591 122.117 41.1278 122.162 38.9932 120.932C34.4509 118.314 32.5626 108.211 35.1384 94.6583C35.4334 93.1062 35.7846 91.5119 36.1893 89.8822C42.0882 91.1854 48.6169 92.1231 55.5949 92.6883C59.5793 98.2895 63.7517 103.438 67.9563 107.946C67.0377 108.832 66.1226 109.676 65.2127 110.47C59.6257 115.35 54.027 118.811 49.0929 120.552ZM28.3211 81.3445C21.2995 78.9468 15.5008 75.8306 11.5261 72.4301C7.95457 69.3743 6.15138 66.3405 6.15138 63.8788C6.15138 58.6402 13.9688 51.9583 27.007 47.4167C28.5889 46.8656 30.245 46.3463 31.9636 45.8585C33.7655 51.7145 36.1293 57.8371 38.9819 64.0284C36.0924 70.3115 33.6951 76.5317 31.8755 82.4564C30.6503 82.1045 29.4632 81.7342 28.3211 81.3445ZM35.284 33.9928C32.5778 20.1752 34.3751 9.75174 38.8978 7.13614C43.7153 4.34973 54.3681 8.32256 65.5959 18.2828C66.3136 18.9194 67.0341 19.5857 67.7567 20.2751C63.5728 24.7634 59.4386 29.8732 55.4895 35.4414C48.7171 36.0685 42.2343 37.076 36.2739 38.425C35.8991 36.919 35.5672 35.4394 35.284 33.9928ZM97.3991 49.3163C95.9742 46.8574 94.5114 44.4567 93.0201 42.1215C97.6146 42.7018 102.017 43.4721 106.151 44.4147C104.909 48.3885 103.363 52.5434 101.542 56.8028C100.235 54.3252 98.8539 51.8272 97.3991 49.3163ZM72.0687 24.6674C74.9061 27.7385 77.7477 31.1674 80.5426 34.8878C77.7261 34.7549 74.8749 34.6857 72 34.6857C69.1523 34.6857 66.322 34.7533 63.523 34.8839C66.3208 31.1982 69.1869 27.7739 72.0687 24.6674ZM46.5761 49.3588C45.1527 51.8246 43.7968 54.3091 42.5111 56.7982C40.7197 52.5537 39.1872 48.3798 37.9353 44.3497C42.0438 43.4311 46.4251 42.68 50.9904 42.1107C49.4781 44.4675 48.0032 46.8864 46.5761 49.3588ZM51.1219 86.0853C46.4051 85.5595 41.958 84.8471 37.8505 83.9539C39.1223 79.8518 40.6887 75.5888 42.518 71.2529C43.8071 73.7402 45.1684 76.2257 46.6004 78.6969C48.0591 81.2144 49.5706 83.6804 51.1219 86.0853ZM72.2389 103.524C69.3233 100.381 66.4151 96.9041 63.5748 93.1646C66.332 93.2727 69.1431 93.328 72 93.328C74.9351 93.328 77.8366 93.2619 80.6925 93.1349C77.8884 96.9418 75.0571 100.424 72.2389 103.524ZM101.6 71.0319C103.525 75.4147 105.148 79.6554 106.436 83.6876C102.261 84.6392 97.7528 85.4056 93.0032 85.9752C94.4981 83.6085 95.9737 81.1665 97.4237 78.6546C98.8906 76.1133 100.283 73.5681 101.6 71.0319ZM92.0951 75.5842C89.8441 79.4835 87.5331 83.2059 85.1871 86.7196C80.914 87.0248 76.4994 87.1821 72 87.1821C67.5188 87.1821 63.1598 87.043 58.9624 86.7708C56.5217 83.211 54.1605 79.4777 51.9239 75.6178C49.6932 71.7684 47.6406 67.8865 45.7802 64.0263C47.64 60.1572 49.6878 56.2709 51.9057 52.4285L51.9052 52.4292C54.129 48.5765 56.4694 44.8613 58.8875 41.3238C63.1701 41.0004 67.5616 40.8316 71.9997 40.8316C76.4579 40.8316 80.8553 41.0017 85.1366 41.3279C87.5178 44.8395 89.8423 48.5427 92.0748 52.3959C94.3327 56.2924 96.4069 60.1528 98.2826 63.939C96.4125 67.7902 94.343 71.6895 92.0951 75.5842ZM104.785 6.9533C109.607 9.73151 111.482 20.936 108.453 35.6286C108.26 36.5661 108.042 37.521 107.806 38.4888C101.831 37.1116 95.3439 36.0867 88.5517 35.4501C84.595 29.8207 80.4946 24.703 76.3789 20.2723C77.4855 19.2088 78.5905 18.1947 79.6908 17.2377C90.3219 7.99452 100.258 4.34513 104.785 6.9533ZM72 51.0321C79.1015 51.0321 84.8587 56.7836 84.8587 63.8788C84.8587 70.9738 79.1015 76.7256 72 76.7256C64.8985 76.7256 59.1413 70.9738 59.1413 63.8788C59.1413 56.7836 64.8985 51.0321 72 51.0321Z" fill="#00D8FF"/>
</svg>
