<svg width="119" height="114" viewBox="0 0 119 114" fill="none" xmlns="http://www.w3.org/2000/svg">
<g clip-path="url(#clip0_21_125)">
<path d="M82.4544 79.3014C86.846 78.8447 90.1775 75.0395 90.0261 70.4732C89.8746 65.9069 86.0888 62.2539 81.5458 62.2539H81.243C76.5486 62.4061 72.9142 66.3635 73.0656 71.082C73.217 73.3652 74.1256 75.3439 75.4885 76.7138C70.3398 86.9119 62.4653 94.3702 50.6536 100.611C42.6277 104.873 34.2989 106.395 25.9701 105.329C19.1556 104.416 13.8555 101.372 10.524 96.3489C5.67815 88.8906 5.22385 80.8235 9.31253 72.7564C12.1897 66.9724 16.7327 62.7105 19.6099 60.5796C19.0042 58.6008 18.0956 55.2522 17.6413 52.8168C-4.3164 68.7989 -2.04491 90.4127 4.61812 100.611C9.61539 108.221 19.7614 112.94 30.9674 112.94C33.996 112.94 37.0247 112.635 40.0533 111.874C59.4367 108.069 74.1256 96.5011 82.4544 79.3014ZM109.107 60.4273C97.5977 46.8807 80.6372 39.4224 61.2539 39.4224H58.831C57.4681 36.6826 54.5908 34.8561 51.4108 34.8561H51.1079C46.4135 35.0083 42.7791 38.9657 42.9305 43.6843C43.082 48.2505 46.8678 51.9036 51.4108 51.9036H51.7136C55.0451 51.7514 57.9224 49.6204 59.1338 46.7284H61.8596C73.3685 46.7284 84.2716 50.0771 94.1147 56.6221C101.686 61.645 107.138 68.19 110.167 76.105C112.741 82.4978 112.589 88.7384 109.864 94.0657C105.624 102.133 98.5063 106.547 89.1175 106.547C83.0602 106.547 77.3057 104.72 74.2771 103.351C72.6113 104.873 69.5827 107.308 67.4626 108.83C73.9742 111.874 80.6372 113.549 86.9974 113.549C101.535 113.549 112.287 105.481 116.375 97.4144C120.767 88.5862 120.464 73.3652 109.107 60.4273ZM32.1788 81.8889C32.3303 86.4552 36.1161 90.1083 40.6591 90.1083H40.9619C45.6563 89.9561 49.2907 85.9986 49.1393 81.2801C48.9878 76.7138 45.202 73.0608 40.6591 73.0608H40.3562C40.0533 73.0608 39.599 73.0608 39.2962 73.213C33.0874 62.8627 30.5131 51.5992 31.4217 39.4224C32.0274 30.2898 35.0561 22.3749 40.3562 15.8298C44.7477 10.1981 53.228 7.45829 58.9824 7.30608C75.0342 7.00166 81.8487 27.0934 82.303 35.1605C84.2716 35.6171 87.6031 36.6826 89.8746 37.4436C88.0574 12.7856 72.9142 0 58.3767 0C44.7477 0 32.1788 9.89365 27.1816 24.5058C20.2157 43.9887 24.7586 62.7105 33.2389 77.4749C32.4817 78.5403 32.0274 80.2146 32.1788 81.8889Z" fill="#764ABC"/>
</g>
<defs>
<clipPath id="clip0_21_125">
<rect width="119" height="114" fill="white"/>
</clipPath>
</defs>
</svg>
