<svg width="145" height="121" viewBox="0 0 145 121" fill="none" xmlns="http://www.w3.org/2000/svg">
<g clip-path="url(#clip0_21_98)">
<path d="M123.734 4.49878L114.399 108.929L72.4372 120.545L30.5913 108.945L21.2659 4.49878H123.734Z" fill="#E44D26"/>
<path d="M72.5 111.666L106.407 102.279L114.384 13.0386H72.5V111.666Z" fill="#F16529"/>
<path d="M54.353 38.6587H72.5V25.8489H40.3337L40.6406 29.2855L43.7937 64.5861H72.5V51.7763H55.5254L54.353 38.6587ZM57.2441 70.9913H44.3668L46.1639 91.1047L72.441 98.3887L72.5 98.3726V85.0449L72.4438 85.0598L58.1575 81.2076L57.2441 70.9913Z" fill="#EBEBEB"/>
<path d="M72.4557 64.5861H88.2519L86.7625 81.1996L72.4553 85.0558V98.3826L98.7533 91.1047L98.9461 88.9404L101.961 55.2161L102.274 51.7763H72.4557V64.5861ZM72.4557 38.6275V38.6587H103.441L103.698 35.7797L104.283 29.2855L104.589 25.8489H72.4557V38.6275Z" fill="white"/>
</g>
<defs>
<clipPath id="clip0_21_98">
<rect width="145" height="120" fill="white" transform="translate(0 0.911133)"/>
</clipPath>
</defs>
</svg>
