<svg width="113" height="113" viewBox="0 0 113 113" fill="none" xmlns="http://www.w3.org/2000/svg">
<path fill-rule="evenodd" clip-rule="evenodd" d="M56.5001 0.958984C87.1665 0.958984 112.041 25.8336 112.041 56.5001C112.041 87.1665 87.1665 112.041 56.5001 112.041C25.8336 112.041 0.958984 87.1665 0.958984 56.5001C0.958984 25.8336 25.8336 0.958984 56.5001 0.958984Z" fill="#CC6699"/>
<path d="M91.3592 24.7962C88.8523 14.9414 72.4925 11.6997 56.9972 17.189C47.7908 20.4523 37.8063 25.5958 30.6314 32.3169C22.0949 40.2915 20.755 47.2288 21.2953 50.1247C23.2619 60.3684 37.2877 67.0463 43.0579 72.0169V72.0386C41.3506 72.8814 28.9241 79.1703 26.0066 85.6105C22.9378 92.3964 26.5036 97.2806 28.8593 97.9289C36.1639 99.9604 43.663 96.3081 47.6827 90.3001C51.5728 84.5083 51.2486 77.0092 49.5629 73.292C51.8969 72.6869 54.62 72.4059 58.0562 72.7949C67.8029 73.9403 69.7047 80.0131 69.3373 82.5633C68.9699 85.1134 66.9384 86.5181 66.2468 86.9288C65.5553 87.361 65.3608 87.4907 65.404 87.8148C65.4905 88.2687 65.793 88.247 66.3765 88.1606C67.1761 88.0309 71.4984 86.0859 71.6713 81.3963C71.909 75.4315 66.182 68.7536 56.0679 68.9265C51.8969 68.9914 49.282 69.402 47.3802 70.0935C47.2505 69.9423 47.0992 69.7694 46.9479 69.6181C40.6807 62.9402 29.1186 58.2073 29.6157 49.2386C29.7885 45.9753 30.9339 37.374 51.8537 26.9573C68.9915 18.4209 82.7147 20.7765 85.0919 25.9848C88.4849 33.4191 77.7657 47.2504 59.958 49.2602C53.172 50.0166 49.6061 47.4016 48.7201 46.4075C47.7908 45.3702 47.6395 45.327 47.2937 45.5215C46.7318 45.8456 47.0776 46.7533 47.2937 47.2936C47.834 48.6767 49.9951 51.1188 53.7339 52.3506C56.9972 53.4312 64.9718 54.0147 74.5888 50.2976C85.4161 46.0834 93.8229 34.4781 91.3592 24.7962ZM45.4784 75.0641C46.278 78.0465 46.1915 80.8344 45.3703 83.3629C45.2839 83.6438 45.1758 83.9248 45.0678 84.1841C44.9597 84.4651 44.83 84.7244 44.7004 85.0053C44.052 86.3452 43.1876 87.5987 42.1286 88.7441C38.9085 92.2668 34.3918 93.585 32.4684 92.4829C30.3721 91.2726 31.431 86.302 35.1698 82.3472C39.1895 78.0897 44.9813 75.3667 44.9813 75.3667V75.3451C45.1326 75.237 45.3055 75.1506 45.4784 75.0641Z" fill="white"/>
</svg>
