<?xml version="1.0" encoding="utf-8"?>
<!-- Svg Vector Icons : http://www.onlinewebfonts.com/icon -->
<!DOCTYPE svg PUBLIC "-//W3C//DTD SVG 1.1//EN" "http://www.w3.org/Graphics/SVG/1.1/DTD/svg11.dtd">
<svg version="1.1" xmlns="http://www.w3.org/2000/svg" xmlns:xlink="http://www.w3.org/1999/xlink" x="0px" y="0px" viewBox="0 0 256 256" enable-background="new 0 0 256 256" xml:space="preserve">
<metadata> Svg Vector Icons : http://www.onlinewebfonts.com/icon </metadata>
<g><g><path fill="#000000" d="M237.9,119.8H115.8l-8.1,20.3v36.6v36.6H246v-36.6v-36.6L237.9,119.8z M123,128h107.7l4.3,12.2H118.7L123,128z M237.9,205.3H115.8v-24.4h122.1V205.3L237.9,205.3z M237.9,172.8H115.8v-24.4h122.1V172.8L237.9,172.8z"/><path fill="#000000" d="M217.5,156.5h8.1v8.1h-8.1V156.5z"/><path fill="#000000" d="M217.5,189h8.1v8.1h-8.1V189z"/><path fill="#000000" d="M18.2,160.5c0-27,21.9-48.8,49-48.8l0,0c0.4-3.4,0.8-5.5,1.6-8.5c6.7-30,33.6-52.5,65.8-52.5c35.1,0,64,26.8,67.1,61h8.2c-3.1-38.7-35.6-69.2-75.3-69.2c-37,0-67.7,26.5-74.3,61.5C31.9,107.4,10,131.4,10,160.5c0,31.5,28.6,36.6,40.8,36.6V195v-6C46.3,189,18.2,187.5,18.2,160.5z"/><path fill="#000000" d="M50.8,195v2.1h49V189h-49L50.8,195z"/><path fill="#000000" d="M79.2,111.9h4c4.6-24.9,26-44,52-44.9v-4C107.1,64.1,84,84.8,79.2,111.9z"/></g></g>
</svg>