<svg width="93" height="94" viewBox="0 0 93 94" fill="none" xmlns="http://www.w3.org/2000/svg">
<g clip-path="url(#clip0_21_95)">
<path d="M79.05 0.911133H13.95C6.24563 0.911133 0 7.15676 0 14.8611V79.9611C0 87.6655 6.24563 93.9111 13.95 93.9111H79.05C86.7544 93.9111 93 87.6655 93 79.9611V14.8611C93 7.15676 86.7544 0.911133 79.05 0.911133Z" fill="#F7DF1E"/>
<path d="M48.9629 56.4268C50.7793 59.5146 53.3223 61.6943 57.5 61.6943C61.1328 61.6943 63.4941 59.8779 63.4941 57.335C63.4941 54.4287 61.1328 53.3389 57.1367 51.5225L54.957 50.6143C48.5996 47.8896 44.4219 44.6201 44.4219 37.5361C44.4219 30.9971 49.3262 25.9111 57.1367 25.9111C62.7676 25.9111 66.7637 27.9092 69.4883 32.9951L62.7676 37.3545C61.3145 34.6299 59.6797 33.54 57.1367 33.54C54.5938 33.54 52.959 35.1748 52.959 37.3545C52.959 39.8975 54.5938 40.9873 58.4082 42.6221L60.5879 43.5303C68.0352 46.7998 72.2129 49.8877 72.2129 57.335C72.2129 65.1455 66.0371 69.5049 57.6816 69.5049C49.5078 69.5049 44.2402 65.6904 41.6973 60.6045L48.9629 56.4268ZM18.084 57.1533C19.5371 59.5146 20.627 61.6943 23.7148 61.6943C26.6211 61.6943 28.4375 60.6045 28.4375 56.2451V26.0928H37.1562V55.8818C37.1562 64.9639 31.8887 68.96 24.0781 68.96C16.9941 68.96 12.998 65.3271 11 60.9678L18.084 57.1533Z" fill="black"/>
</g>
<defs>
<clipPath id="clip0_21_95">
<rect y="0.911133" width="93" height="93" rx="46.5" fill="white"/>
</clipPath>
</defs>
</svg>
