<svg width="129" height="129" viewBox="0 0 129 129" fill="none" xmlns="http://www.w3.org/2000/svg">
<g clip-path="url(#clip0_21_120)">
<path d="M0 64.5V129H64.5H129V64.5V0H64.5H0V64.5Z" fill="#007ACC"/>
<path d="M28.5267 64.928L28.4857 70.2109H36.881H45.2762V94.0656V117.92H51.2143H57.1524V94.0656V70.2109H65.5476H73.9429V65.0304C73.9429 62.1637 73.8814 59.768 73.7995 59.7066C73.7381 59.6247 63.5205 59.5837 51.1324 59.6042L28.5881 59.6656L28.5267 64.928Z" fill="white"/>
<path d="M104.09 59.5156C107.367 60.3347 109.865 61.7885 112.158 64.1637C113.346 65.4333 115.107 67.7471 115.25 68.2999C115.291 68.4637 109.68 72.2314 106.281 74.3404C106.158 74.4223 105.667 73.8899 105.114 73.0709C103.456 70.6547 101.715 69.6104 99.0532 69.4261C95.1423 69.1599 92.6237 71.2075 92.6442 74.6271C92.6442 75.6304 92.7875 76.2242 93.197 77.0433C94.057 78.8247 95.6542 79.8895 100.671 82.0599C109.906 86.0323 113.858 88.6533 116.315 92.3799C119.058 96.5366 119.673 103.171 117.809 108.106C115.762 113.47 110.684 117.115 103.538 118.323C101.326 118.712 96.0842 118.651 93.7089 118.221C88.5285 117.299 83.6142 114.74 80.5837 111.382C79.3961 110.071 77.0823 106.652 77.2256 106.406C77.287 106.324 77.8194 105.997 78.4132 105.649C78.9866 105.321 81.157 104.072 83.2047 102.884L86.9108 100.734L87.6889 101.881C88.7742 103.539 91.1494 105.812 92.5827 106.57C96.6985 108.74 102.35 108.433 105.135 105.935C106.322 104.85 106.814 103.724 106.814 102.065C106.814 100.57 106.629 99.9152 105.851 98.789C104.848 97.3556 102.8 96.1475 96.9851 93.629C90.3304 90.7623 87.4637 88.9809 84.8427 86.1552C83.3275 84.5171 81.8942 81.8961 81.3004 79.7052C80.8089 77.8828 80.6861 73.3166 81.0751 71.4737C82.447 65.0442 87.2999 60.5599 94.3027 59.229C96.5756 58.799 101.858 58.9628 104.09 59.5156Z" fill="white"/>
</g>
<defs>
<clipPath id="clip0_21_120">
<rect width="129" height="129" fill="white"/>
</clipPath>
</defs>
</svg>
